<?xml version="1.0" encoding="UTF-8" standalone="no"?>
<!-- Created with Inkscape (http://www.inkscape.org/) -->
<svg
   xmlns:svg="http://www.w3.org/2000/svg"
   xmlns="http://www.w3.org/2000/svg"
   version="1.0"
   width="744.09448"
   height="1052.3622"
   id="svg2461">
  <defs
     id="defs2463" />
  <g
     id="layer1">
    <path
       d="M 247.5,157.5 C 247.5,160.3125 221.8107,204.80768 219.375,206.21393 C 216.9393,207.62018 165.5607,207.62018 163.125,206.21393 C 160.6893,204.80768 135,160.3125 135,157.5 C 135,154.6875 160.6893,110.19232 163.125,108.78607 C 165.5607,107.37982 216.9393,107.37982 219.375,108.78607 C 221.8107,110.19232 247.5,154.6875 247.5,157.5 z"
       transform="matrix(0.9392803,1.0381486,-0.5190743,0.4696401,119.48328,281.18184)"
       id="path3342"
       style="fill:#768aff;fill-opacity:0.62209305;fill-rule:evenodd;stroke:#001662;stroke-width:0.90913731;stroke-linecap:butt;stroke-linejoin:miter;stroke-miterlimit:4;stroke-dasharray:none;stroke-opacity:1;display:inline" />
    <path
       d="M 247.5,157.5 C 247.5,160.3125 221.8107,204.80768 219.375,206.21393 C 216.9393,207.62018 165.5607,207.62018 163.125,206.21393 C 160.6893,204.80768 135,160.3125 135,157.5 C 135,154.6875 160.6893,110.19232 163.125,108.78607 C 165.5607,107.37982 216.9393,107.37982 219.375,108.78607 C 221.8107,110.19232 247.5,154.6875 247.5,157.5 z"
       transform="matrix(1.3660518e-2,1.3999334,-0.6999666,6.8302218e-3,393.4802,262.38681)"
       id="path3344"
       style="fill:#778aff;fill-opacity:1;fill-rule:evenodd;stroke:#001662;stroke-width:0.90913731;stroke-linecap:butt;stroke-linejoin:miter;stroke-miterlimit:4;stroke-dasharray:none;stroke-opacity:1;display:inline" />
    <path
       d="M 247.5,157.5 C 247.5,160.3125 221.8107,204.80768 219.375,206.21393 C 216.9393,207.62018 165.5607,207.62018 163.125,206.21393 C 160.6893,204.80768 135,160.3125 135,157.5 C 135,154.6875 160.6893,110.19232 163.125,108.78607 C 165.5607,107.37982 216.9393,107.37982 219.375,108.78607 C 221.8107,110.19232 247.5,154.6875 247.5,157.5 z"
       transform="matrix(0.9392803,1.0381486,-0.5190743,0.4696401,135.39876,266.536)"
       id="path3346"
       style="fill:#768aff;fill-opacity:0.62209305;fill-rule:evenodd;stroke:#001662;stroke-width:0.90913731;stroke-linecap:butt;stroke-linejoin:miter;stroke-miterlimit:4;stroke-dasharray:none;stroke-opacity:1;display:inline" />
    <path
       d="M 285.08963,452.45234 C 283.12097,452.47155 252.32194,488.75168 251.37088,492.17109 C 251.12068,493.07065 250.97913,498.81524 250.93338,506.70234 C 241.4305,496.32462 233.33072,487.71321 232.15213,486.98359 C 229.13438,485.11541 181.89327,479.31897 180.43338,480.63984 C 179.90238,481.12027 179.71196,487.78397 179.74588,496.13984 C 171.57962,495.29326 165.05161,494.82155 164.52713,495.29609 C 163.06723,496.61695 164.09427,544.2008 165.65213,547.38984 C 167.20998,550.57889 215.47813,603.89664 218.49588,605.76484 C 221.51363,607.63302 268.75474,613.39822 270.21463,612.07734 C 270.74563,611.59691 270.93606,604.96446 270.90213,596.60859 C 271.89729,596.71175 272.7473,596.76839 273.68338,596.85859 C 280.17579,604.03586 285.82408,609.96011 286.62088,609.95234 C 288.58954,609.93313 319.38858,573.65301 320.33963,570.23359 C 321.29069,566.81417 320.57599,494.88379 319.55838,491.48359 C 318.54078,488.08338 287.05828,452.43313 285.08963,452.45234 z"
       id="path3348"
       style="fill:none;fill-opacity:0.62209305;fill-rule:evenodd;stroke:#001662;stroke-width:2.25;stroke-linecap:butt;stroke-linejoin:miter;stroke-miterlimit:4;stroke-dasharray:none;stroke-opacity:1;display:inline" />
    <text
       x="296.46304"
       y="565.66437"
       id="text3350"
       xml:space="preserve"
       style="font-size:103.41629791px;font-style:normal;font-variant:normal;font-weight:normal;font-stretch:normal;text-align:start;line-height:125%;writing-mode:lr-tb;text-anchor:start;fill:#ffffff;fill-opacity:1;stroke:#001662;stroke-width:2.25;stroke-linecap:butt;stroke-linejoin:round;stroke-miterlimit:4;stroke-dasharray:none;stroke-opacity:1;display:inline;font-family:Franklin Gothic Heavy;-inkscape-font-specification:'Franklin Gothic Heavy,'"><tspan
         x="296.46304"
         y="565.66437"
         dx="0 -1.4285715 2.8571429 4.2857141 5.7142854"
         id="tspan3352"
         style="fill:#ffffff;fill-opacity:1;stroke:#001662;stroke-opacity:1">Topaz</tspan></text>
    <text
       x="447.09396"
       y="590.21149"
       id="text3370"
       xml:space="preserve"
       style="font-size:18px;font-style:normal;font-variant:normal;font-weight:bold;font-stretch:normal;text-align:start;line-height:125%;writing-mode:lr-tb;text-anchor:start;fill:#001662;fill-opacity:1;stroke:none;stroke-width:1px;stroke-linecap:butt;stroke-linejoin:miter;stroke-opacity:1;display:inline;font-family:Arial;-inkscape-font-specification:Arial Bold"><tspan
         x="447.09396"
         y="590.21149"
         id="tspan3372">topazproject.org</tspan></text>
  </g>
</svg>
