<?xml version="1.0" encoding="UTF-8" standalone="no"?>
<!-- Created with Inkscape (http://www.inkscape.org/) -->
<svg
   xmlns:svg="http://www.w3.org/2000/svg"
   xmlns="http://www.w3.org/2000/svg"
   version="1.0"
   width="744.09448"
   height="1052.3622"
   id="svg2499">
  <defs
     id="defs2501" />
  <g
     id="layer1">
    <g
       transform="matrix(1.1906859,0,0,1.1906859,-45.142021,-238.99335)"
       id="g4037"
       style="display:inline">
      <g
         transform="translate(484.28571,651.42857)"
         id="g3714">
        <g
           transform="matrix(0.6720424,0,0,0.6707072,-434.30568,-369.59079)"
           id="g3624"
           style="stroke:#471100;stroke-width:0.83985204;stroke-opacity:1;display:inline">
          <path
             d="M 355.25089,543.01969 C 365.93033,542.58793 380.30972,535.42773 381.13951,524.0023 C 382.42581,506.29132 359.45274,493.63085 326.26238,491.4231 C 287.13373,488.82036 252.13871,504.54417 247.43421,524.40041"
             id="path3626"
             style="fill:none;fill-rule:evenodd;stroke:#471100;stroke-width:1.53111959px;stroke-linecap:butt;stroke-linejoin:miter;stroke-opacity:1;display:inline" />
          <path
             d="M 426.52519,528.42427 C 421.01124,513.02657 390.38929,491.04626 350.61939,486.41462 C 282.84179,478.52118 223.21197,508.27203 213.46534,530.70481 C 209.01946,540.93742 204.73796,555.14259 220.6987,566.71038"
             id="path3628"
             style="fill:none;fill-rule:evenodd;stroke:#471100;stroke-width:1.53111959px;stroke-linecap:butt;stroke-linejoin:miter;stroke-opacity:1;display:inline" />
          <path
             d="M 722.89047,578.12437 C 604.51211,578.12437 558.37841,574.09918 514.15339,548.36985 C 458.12588,515.77404 417.08246,490.21541 373.57031,483.26628 C 289.93117,469.90864 221.59092,499.54298 194.86317,526.93759 C 176.7474,545.50535 170.11208,577.12264 193.48431,598.88107"
             id="path3630"
             style="fill:none;fill-rule:evenodd;stroke:#471100;stroke-width:1.53111959px;stroke-linecap:butt;stroke-linejoin:miter;stroke-opacity:1;display:inline" />
          <path
             d="M 322.4554,508.63024 C 322.31754,508.62762 322.41778,508.7777 322.44353,508.79744 C 322.80628,509.07549 323.60559,508.85546 323.88833,508.65753 C 324.80968,508.01253 323.75974,507.16187 322.58136,506.85589 C 319.95558,506.17405 317.04231,507.2317 316.09563,508.50915 C 314.35854,510.85316 317.80136,513.25689 322.07762,513.95152 C 329.04659,515.08356 335.89157,512.35237 337.66219,508.91977 C 340.32593,503.75571 332.77439,498.81663 323.23418,497.66063 C 309.68439,496.01879 296.95377,501.34681 294.22898,508.09281"
             id="path3632"
             style="fill:none;fill-rule:evenodd;stroke:#471100;stroke-width:1.5761894;stroke-linecap:butt;stroke-linejoin:miter;stroke-miterlimit:4;stroke-dasharray:none;stroke-opacity:1;display:inline" />
        </g>
        <g
           transform="matrix(0.6720424,0,0,0.6707072,-434.30568,-393.9814)"
           id="g3634"
           style="fill:#ffe073;fill-opacity:1;fill-rule:evenodd;stroke:#ffe073;stroke-width:1.53111959px;stroke-linecap:butt;stroke-linejoin:miter;stroke-opacity:1;display:inline">
          <path
             d="M 722.89047,578.12437 C 604.51211,578.12437 558.37841,574.09918 514.15339,548.36985 L 514.15339,583.36985 C 558.37841,609.09918 604.51211,613.12437 722.89047,613.12437 L 722.89047,578.12437 z"
             id="path3636"
             style="fill:#ffe073;fill-opacity:1;stroke:#ffe073;stroke-width:1.53111959;stroke-opacity:1" />
          <path
             d="M 514.15339,548.36985 C 458.12588,515.77404 417.08246,490.21541 373.57031,483.26628 L 373.57031,518.26628 C 417.08246,525.21541 458.12588,550.77404 514.15339,583.36985 L 514.15339,548.36985 z"
             id="path3638"
             style="fill:#ffe073;fill-opacity:1;stroke:#ffe073;stroke-width:1.53111959;stroke-opacity:1" />
          <path
             d="M 373.57031,483.26628 C 289.93117,469.90864 221.59092,499.54298 194.86317,526.93759 L 194.86317,561.93759 C 221.59092,534.54298 289.93117,504.90864 373.57031,518.26628 L 373.57031,483.26628 z"
             id="path3640"
             style="fill:#ffe073;fill-opacity:1;stroke:#ffe073;stroke-width:1.53111959;stroke-opacity:1" />
          <path
             d="M 194.86317,526.93759 C 184.94853,537.0996 178.47263,551.17034 178.47263,565.39441 L 178.47263,600.39441 C 178.47263,586.17034 184.94853,572.0996 194.86317,561.93759 L 194.86317,526.93759 z"
             id="path3642"
             style="fill:#ffe073;fill-opacity:1;stroke:#ffe073;stroke-width:1.53111959;stroke-opacity:1" />
          <path
             d="M 178.47263,565.39441 C 178.47263,577.16019 182.90355,589.03088 193.48431,598.88107 L 193.48431,633.88107 C 182.90355,624.03088 178.47263,612.16019 178.47263,600.39441 L 178.47263,565.39441 z"
             id="path3644"
             style="fill:#ffe073;fill-opacity:1;stroke:#ffe073;stroke-width:1.53111959;stroke-opacity:1" />
        </g>
        <g
           transform="matrix(0.6720424,0,0,0.6707072,-434.30568,-393.9814)"
           id="g3646"
           style="fill:#efc287;fill-opacity:1;fill-rule:evenodd;stroke:#efc287;stroke-width:1.53111959px;stroke-linecap:butt;stroke-linejoin:miter;stroke-opacity:1;display:inline">
          <path
             d="M 426.52519,528.42427 C 421.01124,513.02657 390.38929,491.04626 350.61939,486.41462 L 350.61939,521.41462 C 390.38929,526.04626 421.01124,548.02657 426.52519,563.42427 L 426.52519,528.42427 z"
             id="path3648"
             style="fill:#efc287;fill-opacity:1;stroke:#efc287;stroke-width:1.53111959;stroke-opacity:1" />
          <path
             d="M 350.61939,486.41462 C 282.84179,478.52118 223.21197,508.27203 213.46534,530.70481 L 213.46534,565.70481 C 223.21197,543.27203 282.84179,513.52118 350.61939,521.41462 L 350.61939,486.41462 z"
             id="path3650"
             style="fill:#efc287;fill-opacity:1;stroke:#efc287;stroke-width:1.53111959;stroke-opacity:1" />
          <path
             d="M 213.46534,530.70481 C 211.40934,535.43688 209.3885,541.01851 209.3885,546.796 L 209.3885,581.796 C 209.3885,576.01851 211.40934,570.43688 213.46534,565.70481 L 213.46534,530.70481 z"
             id="path3652"
             style="fill:#efc287;fill-opacity:1;stroke:#efc287;stroke-width:1.53111959;stroke-opacity:1" />
          <path
             d="M 209.3885,546.796 C 209.3885,553.51174 212.119,560.49211 220.6987,566.71038 L 220.6987,601.71038 C 212.119,595.49211 209.3885,588.51174 209.3885,581.796 L 209.3885,546.796 z"
             id="path3654"
             style="fill:#efc287;fill-opacity:1;stroke:#efc287;stroke-width:1.53111959;stroke-opacity:1" />
        </g>
        <g
           transform="matrix(0.6720424,0,0,0.6707072,-434.30568,-393.9814)"
           id="g3656"
           style="fill:#e5ab7f;fill-opacity:1;fill-rule:evenodd;stroke:#e5ab7f;stroke-width:1.57618976;stroke-linecap:butt;stroke-linejoin:miter;stroke-miterlimit:4;stroke-dasharray:none;stroke-opacity:1;display:inline">
          <path
             d="M 355.25089,543.01969 C 365.93033,542.58793 380.30972,535.42773 381.13951,524.0023 L 381.13951,559.0023 C 380.30972,570.42773 365.93033,577.58793 355.25089,578.01969 L 355.25089,543.01969 z"
             id="path3658"
             style="fill:#e5ab7f;fill-opacity:1;stroke:#e5ab7f;stroke-width:1.57618976;stroke-miterlimit:4;stroke-dasharray:none;stroke-opacity:1" />
          <path
             d="M 381.13951,524.0023 C 381.17388,523.5291 381.19093,523.0595 381.19093,522.59361 L 381.19093,557.59361 C 381.19093,558.0595 381.17388,558.5291 381.13951,559.0023 L 381.13951,524.0023 z"
             id="path3660"
             style="fill:#e5ab7f;fill-opacity:1;stroke:#e5ab7f;stroke-width:1.57618976;stroke-miterlimit:4;stroke-dasharray:none;stroke-opacity:1" />
          <path
             d="M 381.19093,522.59361 C 381.19093,505.62226 358.56596,493.57186 326.26238,491.4231 L 326.26238,526.4231 C 358.56596,528.57186 381.19093,540.62226 381.19093,557.59361 L 381.19093,522.59361 z"
             id="path3662"
             style="fill:#e5ab7f;fill-opacity:1;stroke:#e5ab7f;stroke-width:1.57618976;stroke-miterlimit:4;stroke-dasharray:none;stroke-opacity:1" />
          <path
             d="M 326.26238,491.4231 C 287.13373,488.82036 252.13871,504.54417 247.43421,524.40041 L 247.43421,559.40041 C 252.13871,539.54417 287.13373,523.82036 326.26238,526.4231 L 326.26238,491.4231 z"
             id="path3664"
             style="fill:#e5ab7f;fill-opacity:1;stroke:#e5ab7f;stroke-width:1.57618976;stroke-miterlimit:4;stroke-dasharray:none;stroke-opacity:1" />
        </g>
        <g
           transform="matrix(0.6720424,0,0,0.6707072,-434.30568,-393.9814)"
           id="g3666"
           style="fill:#d4886a;fill-opacity:1;fill-rule:evenodd;stroke:#d4886a;stroke-width:1.5761894;stroke-linecap:butt;stroke-linejoin:miter;stroke-miterlimit:4;stroke-dasharray:none;stroke-opacity:1;display:inline">
          <path
             d="M 322.4554,508.63024 C 322.40182,508.62922 322.38421,508.65127 322.38421,508.67977 L 322.38421,543.67977 C 322.38421,543.65127 322.40182,543.62922 322.4554,543.63024 L 322.4554,508.63024 z"
             id="path3668"
             style="fill:#d4886a;fill-opacity:1;stroke:#d4886a;stroke-width:1.5761894;stroke-opacity:1" />
          <path
             d="M 322.38421,508.67977 C 322.38421,508.72459 322.42779,508.78537 322.44353,508.79744 L 322.44353,543.79744 C 322.42779,543.78537 322.38421,543.72459 322.38421,543.67977 L 322.38421,508.67977 z"
             id="path3670"
             style="fill:#d4886a;fill-opacity:1;stroke:#d4886a;stroke-width:1.5761894;stroke-opacity:1" />
          <path
             d="M 322.44353,508.79744 C 322.80628,509.07549 323.60559,508.85546 323.88833,508.65753 L 323.88833,543.65753 C 323.60559,543.85546 322.80628,544.07549 322.44353,543.79744 L 322.44353,508.79744 z"
             id="path3672"
             style="fill:#d4886a;fill-opacity:1;stroke:#d4886a;stroke-width:1.5761894;stroke-opacity:1" />
          <path
             d="M 323.88833,508.65753 C 324.13435,508.4853 324.23981,508.29841 324.23981,508.11114 L 324.23981,543.11114 C 324.23981,543.29841 324.13435,543.4853 323.88833,543.65753 L 323.88833,508.65753 z"
             id="path3674"
             style="fill:#d4886a;fill-opacity:1;stroke:#d4886a;stroke-width:1.5761894;stroke-opacity:1" />
          <path
             d="M 324.23981,508.11114 C 324.23981,507.59708 323.44509,507.08017 322.58136,506.85589 L 322.58136,541.85589 C 323.44509,542.08017 324.23981,542.59708 324.23981,543.11114 L 324.23981,508.11114 z"
             id="path3676"
             style="fill:#d4886a;fill-opacity:1;stroke:#d4886a;stroke-width:1.5761894;stroke-opacity:1" />
          <path
             d="M 322.58136,506.85589 C 319.95558,506.17405 317.04231,507.2317 316.09563,508.50915 L 316.09563,543.50915 C 317.04231,542.2317 319.95558,541.17405 322.58136,541.85589 L 322.58136,506.85589 z"
             id="path3678"
             style="fill:#d4886a;fill-opacity:1;stroke:#d4886a;stroke-width:1.5761894;stroke-opacity:1" />
          <path
             d="M 316.09563,508.50915 C 315.78036,508.93458 315.63571,509.36197 315.63571,509.78076 L 315.63571,544.78076 C 315.63571,544.36197 315.78036,543.93458 316.09563,543.50915 L 316.09563,508.50915 z"
             id="path3680"
             style="fill:#d4886a;fill-opacity:1;stroke:#d4886a;stroke-width:1.5761894;stroke-opacity:1" />
          <path
             d="M 315.63571,509.78076 C 315.63571,511.6694 318.57748,513.38296 322.07762,513.95152 L 322.07762,548.95152 C 318.57748,548.38296 315.63571,546.6694 315.63571,544.78076 L 315.63571,509.78076 z"
             id="path3682"
             style="fill:#d4886a;fill-opacity:1;stroke:#d4886a;stroke-width:1.5761894;stroke-opacity:1" />
          <path
             d="M 322.07762,513.95152 C 329.04659,515.08356 335.89157,512.35237 337.66219,508.91977 L 337.66219,543.91977 C 335.89157,547.35237 329.04659,550.08356 322.07762,548.95152 L 322.07762,513.95152 z"
             id="path3684"
             style="fill:#d4886a;fill-opacity:1;stroke:#d4886a;stroke-width:1.5761894;stroke-opacity:1" />
          <path
             d="M 337.66219,508.91977 C 338.02993,508.20685 338.20298,507.49821 338.20298,506.80323 L 338.20298,541.80323 C 338.20298,542.49821 338.02993,543.20685 337.66219,543.91977 L 337.66219,508.91977 z"
             id="path3686"
             style="fill:#d4886a;fill-opacity:1;stroke:#d4886a;stroke-width:1.5761894;stroke-opacity:1" />
          <path
             d="M 338.20298,506.80323 C 338.20298,502.46409 331.45732,498.65704 323.23418,497.66063 L 323.23418,532.66063 C 331.45732,533.65704 338.20298,537.46409 338.20298,541.80323 L 338.20298,506.80323 z"
             id="path3688"
             style="fill:#d4886a;fill-opacity:1;stroke:#d4886a;stroke-width:1.5761894;stroke-opacity:1" />
          <path
             d="M 323.23418,497.66063 C 309.68439,496.01879 296.95377,501.34681 294.22898,508.09281 L 294.22898,543.09281 C 296.95377,536.34681 309.68439,531.01879 323.23418,532.66063 L 323.23418,497.66063 z"
             id="path3690"
             style="fill:#d4886a;fill-opacity:1;stroke:#d4886a;stroke-width:1.5761894;stroke-opacity:1" />
        </g>
        <g
           transform="matrix(0.6720424,0,0,0.6707072,-434.30568,-339.10255)"
           id="g3692"
           style="stroke:#471100;stroke-width:0.83985204;stroke-opacity:1;display:inline">
          <path
             d="M 247.43421,477.85266 L 247.43421,442.55774 C 252.13871,422.7015 287.13373,406.97769 326.26238,409.58043 C 359.45274,411.78818 382.42581,424.44865 381.13951,442.15963 C 380.30972,453.58506 365.93033,460.74526 355.25089,461.17702 L 355.25089,498.05571"
             id="path3694"
             style="fill:none;fill-rule:evenodd;stroke:#471100;stroke-width:1.53111959px;stroke-linecap:butt;stroke-linejoin:miter;stroke-opacity:1;display:inline" />
          <path
             d="M 221.22341,520.78414 L 220.6987,520.78414 L 220.6987,484.86771 C 204.73796,473.29992 209.01946,459.09475 213.46534,448.86214 C 223.21197,426.42936 282.84179,396.67851 350.61939,404.57195 C 390.38929,409.20359 421.01124,431.1839 426.52519,446.5816 L 426.52519,482.90342"
             id="path3696"
             style="fill:none;fill-rule:evenodd;stroke:#471100;stroke-width:1.53111959px;stroke-linecap:butt;stroke-linejoin:miter;stroke-opacity:1;display:inline" />
          <path
             d="M 193.48431,552.60395 L 193.48431,517.0384 C 170.11208,495.27997 176.7474,463.66268 194.86317,445.09492 C 221.59092,417.70031 289.93117,388.06597 373.57031,401.42361 C 417.08246,408.37274 458.12588,433.93137 514.15339,466.52718 C 558.37841,492.25651 604.51211,496.2817 722.89047,496.2817 C 722.89047,532.4009 722.89047,532.90597 722.89047,532.90597"
             id="path3698"
             style="fill:none;fill-rule:evenodd;stroke:#471100;stroke-width:1.53111959px;stroke-linecap:butt;stroke-linejoin:miter;stroke-opacity:1;display:inline" />
          <path
             d="M 294.22898,462.19529 L 294.22898,426.25014 C 296.95377,419.50414 309.68439,414.17612 323.23418,415.81796 C 332.77439,416.97396 340.32593,421.91304 337.66219,427.0771 C 335.89157,430.5097 329.04659,433.24089 322.07762,432.10885 C 317.80136,431.41422 314.35854,429.01049 316.09563,426.66648 C 317.04231,425.38903 319.95558,424.33138 322.58136,425.01322 C 323.75974,425.3192 324.80968,426.16986 323.88833,426.81486 C 323.60559,427.01279 322.80628,427.23282 322.44353,426.95477 C 322.41778,426.93503 322.31754,426.78495 322.4554,426.78757 L 322.45542,432.16648"
             id="path3700"
             style="fill:none;fill-rule:evenodd;stroke:#471100;stroke-width:1.5761894;stroke-linecap:butt;stroke-linejoin:miter;stroke-miterlimit:4;stroke-dasharray:none;stroke-opacity:1;display:inline" />
          <path
             d="M 315.64406,427.76405 L 315.64406,465.22575"
             id="path3702"
             style="fill:none;fill-rule:evenodd;stroke:#471100;stroke-width:1.25094426px;stroke-linecap:butt;stroke-linejoin:miter;stroke-opacity:1" />
          <path
             d="M 324.21936,426.12373 L 324.21948,432.33903"
             id="path3704"
             style="fill:none;fill-rule:evenodd;stroke:#471100;stroke-width:1.25094426px;stroke-linecap:butt;stroke-linejoin:miter;stroke-opacity:1" />
          <path
             d="M 338.20273,425.0064 L 338.20273,462.85714"
             id="path3706"
             style="fill:none;fill-rule:evenodd;stroke:#471100;stroke-width:1.25094426px;stroke-linecap:butt;stroke-linejoin:miter;stroke-opacity:1" />
          <path
             d="M 381.16281,441.79127 L 381.16281,481.42857"
             id="path3708"
             style="fill:none;fill-rule:evenodd;stroke:#471100;stroke-width:1.25094426px;stroke-linecap:butt;stroke-linejoin:miter;stroke-opacity:1" />
          <path
             d="M 209.48667,467.12301 L 209.48667,505"
             id="path3710"
             style="fill:none;fill-rule:evenodd;stroke:#471100;stroke-width:1.25094426px;stroke-linecap:butt;stroke-linejoin:miter;stroke-opacity:1" />
          <path
             d="M 178.47383,483.21613 L 178.47383,526.07143"
             id="path3712"
             style="fill:none;fill-rule:evenodd;stroke:#471100;stroke-width:1.25094426px;stroke-linecap:butt;stroke-linejoin:miter;stroke-opacity:1" />
        </g>
      </g>
      <text
         x="205.45532"
         y="695.86139"
         transform="scale(1.0009949,0.9990061)"
         id="text7531"
         xml:space="preserve"
         style="font-size:68px;font-style:normal;font-variant:normal;font-weight:normal;font-stretch:normal;text-align:start;line-height:125%;writing-mode:lr-tb;text-anchor:start;fill:#471100;fill-opacity:1;stroke:none;stroke-width:1px;stroke-linecap:butt;stroke-linejoin:miter;stroke-opacity:1;display:inline;font-family:Bodoni MT;-inkscape-font-specification:Bodoni MT"><tspan
           x="205.45532"
           y="695.86139"
           dx="0 -1.0101526"
           id="tspan7533">Ambra</tspan></text>
      <text
         x="206.88036"
         y="714.34924"
         transform="scale(1.0009949,0.9990061)"
         id="text3581"
         xml:space="preserve"
         style="font-size:15.11733723px;font-style:normal;font-variant:normal;font-weight:normal;font-stretch:normal;text-align:start;line-height:125%;writing-mode:lr-tb;text-anchor:start;fill:#471100;fill-opacity:1;stroke:none;stroke-width:1px;stroke-linecap:butt;stroke-linejoin:miter;stroke-opacity:1;display:inline;font-family:Arial;-inkscape-font-specification:Arial"><tspan
           x="206.88036"
           y="714.34924"
           id="tspan3583">An Open Source publishing system</tspan></text>
    </g>
  </g>
</svg>
